PathFileType	4	(X/Y/Z)	C:\Users\WrightLab\Desktop\Jo\P5V122.trc
DataRate	CameraRate	NumFrames	NumMarkers	Units	OrigDataRate	OrigDataStartFrame	OrigNumFrames
100.00	100.00	       14	19	mm	100.00	427	       569
Frame#	Time	Headset_Front			Headset_Back			Headset_Left			Headset_Right			Left_Shoulder			Right_Shoulder			Sternum			C7			Left Elbow			Right Elbow			Left Wrist			Right Wrist			Left ASIS			Right ASIS			S2			Left Knee			Right Knee			Left Ankle			Right Ankle			
		X1	Y1	Z1	X2	Y2	Z2	X3	Y3	Z3	X4	Y4	Z4	X5	Y5	Z5	X6	Y6	Z6	X7	Y7	Z7	X8	Y8	Z8	X9	Y9	Z9	X10	Y10	Z10	X11	Y11	Z11	X12	Y12	Z12	X13	Y13	Z13	X14	Y14	Z14	X15	Y15	Z15	X16	Y16	Z16	X17	Y17	Z17	X18	Y18	Z18	X19	Y19	Z19	

427	4.260	14.40097	1653.31543	1811.36157	207.16632	1731.59766	1849.03711							379.90201	1531.92920	1861.88684	319.78726	1559.59949	1625.44971	156.77393	1371.86328	1776.78882				422.15488	1250.81787	1967.49768	78.06249	1227.49182	1463.54028	351.67520	1048.39575	2094.80469	5.37496	966.91327	1487.16980	243.36642	969.51685	1869.20667	56.61441	1001.54370	1669.43811	391.39771	1004.09479	1615.80994	364.98560	535.46228	1813.09485				546.18542	173.23604	1608.39685	119.94109	145.05035	1828.03577	
428	4.270	8.47668	1652.36267	1813.32288	201.12193	1730.64795	1854.10864							373.11771	1531.55176	1867.37573	314.61624	1557.94092	1630.34900	150.91104	1370.71301	1781.04395				413.30585	1250.35400	1974.67395	74.63109	1225.87976	1466.28113	340.96414	1048.64587	2101.80981	2.15546	965.31207	1490.47888	236.66418	969.13177	1876.57214	52.80673	1000.72394	1673.87610	386.83139	1003.04474	1623.04980	359.28766	536.08105	1818.93628				545.66931	176.31688	1611.36719	117.83055	143.73022	1831.20386	
429	4.280	2.64606	1651.93481	1815.46411	194.81900	1730.13379	1857.52539							366.00998	1531.01062	1873.03931	309.98633	1556.06091	1635.70569	144.29051	1369.75574	1784.65076				404.65082	1249.06921	1981.15417	70.99041	1223.90662	1470.48743	330.94583	1048.41650	2107.65894	-1.37604	963.38574	1494.87769	229.57959	968.77924	1883.35010	54.41578	563.57367	1769.07935	381.67706	1000.95880	1630.84180	353.81696	535.29456	1824.54614				544.15546	178.70564	1614.84106	116.62646	141.68800	1835.96143	
430	4.290	-3.58375	1651.50513	1818.40881	188.21623	1729.00549	1860.15063							359.05710	1529.98755	1878.70642	304.98859	1554.27002	1639.81702	138.37175	1369.29749	1789.81592				395.26120	1248.94678	1987.97693	67.46497	1221.87305	1474.63428	320.55951	1047.56201	2114.03101	-5.16487	961.39923	1498.91260	222.22102	968.50879	1892.53198	43.50631	997.86115	1685.51428	376.53287	998.38452	1639.43005	347.44763	535.56018	1830.85266				542.74634	182.01872	1617.97827	114.60961	140.45750	1836.06396	
431	4.300	-9.73674	1650.93726	1820.71570	182.07822	1727.54150	1863.86963							351.70789	1529.04968	1883.50769	299.06976	1552.29468	1644.88818	131.68892	1367.99597	1793.95422				385.84396	1248.76196	1994.82629	63.74633	1219.91797	1477.85510	310.04315	1047.20471	2119.96973	-9.10597	959.50800	1502.66772	215.11238	968.04456	1899.61865	38.19025	996.13171	1690.86292	371.16614	996.79230	1648.27405	340.61191	535.46393	1837.53113	44.99350	561.29254	1780.80322	542.23584	186.12544	1621.78308	112.18306	138.20296	1839.72119	
432	4.310	-15.34237	1649.97156	1821.74072	176.43231	1726.60059	1867.14429							344.19711	1528.34595	1889.14685	294.66983	1550.47449	1648.81348	125.00675	1366.74756	1797.07043				377.22186	1247.50793	2000.16174	59.90731	1217.31165	1481.73389	299.43723	1046.64941	2125.38037	32.58146	994.91327	1696.38635	207.50417	968.54053	1908.47156	39.71977	559.06305	1786.86292	365.72781	995.01233	1657.24792	332.59946	534.87115	1846.94714				539.99994	190.03168	1625.81433	110.24516	137.05472	1842.62891	
433	4.320	-21.35845	1650.23914	1823.14429	169.95630	1726.19385	1870.30566							337.57318	1527.24731	1893.29419	289.26526	1548.17407	1653.04736	118.22858	1365.16577	1800.56140				368.10574	1246.50647	2006.79688	56.20152	1215.01648	1485.65222	288.72333	1045.64478	2129.74146	-21.40735	956.05316	1519.44836	198.86745	967.96466	1915.89355	34.25171	555.73132	1793.24976	359.97327	992.66510	1664.40869	325.12598	532.77856	1855.51904	26.33406	993.64874	1701.58887	538.04279	194.27835	1629.67480				
434	4.330	-27.76559	1649.66040	1825.22510	163.31905	1725.92786	1872.46790							330.32187	1526.61743	1897.99670				111.98724	1365.36462	1805.35950				358.80655	1245.87903	2012.19360	52.53431	1213.10352	1489.22864	278.43915	1043.99854	2133.93677	-22.65604	953.76941	1522.24158	190.90007	967.77594	1923.98267	19.84105	992.22125	1708.22412	354.55975	990.90503	1671.57373	316.49969	531.25714	1866.90393	28.92488	551.93073	1800.04468	535.27484	199.41216	1635.48682				
435	4.340	-34.35406	1649.78430	1826.71558	156.46880	1726.46240	1874.95398							323.03195	1526.27344	1904.34436				105.63496	1364.81616	1809.31897				349.74228	1245.50830	2017.68750	48.71485	1211.18738	1492.79749	267.79651	1043.81006	2140.14941	13.30909	991.09094	1713.55591	181.96838	968.27838	1931.19812	-27.02668	952.19562	1525.90515	348.98779	989.75415	1681.26099	307.18130	529.46179	1878.17200	23.63295	547.97900	1804.95654	531.43536	204.79195	1642.21460				
436	4.350	-41.01653	1650.51367	1828.02246	150.08502	1726.93750	1876.30005							316.25827	1526.47021	1909.90759				99.55114	1364.56323	1812.06921				340.36197	1245.35107	2023.02478	45.17121	1209.98804	1496.39746	257.93100	1043.71985	2144.73438	-31.55197	950.86780	1531.54065	172.78079	969.18561	1938.31177	18.82350	545.26788	1809.98755	343.76987	987.72314	1690.61328	296.83646	528.03192	1892.85205	6.26126	990.01288	1720.06177	526.64435	210.33800	1648.15515				
437	4.360	-47.57841	1650.81201	1828.90967	142.06087	1728.05566	1880.44690							309.16272	1527.32080	1915.15173	-0.23622	990.23407	1724.78137	93.28225	1365.54199	1816.57971				331.23605	1245.08081	2028.03015	41.76281	1208.96936	1500.43848	247.76965	1042.85095	2147.82788	-38.95343	951.60272	1535.87646	163.25485	969.79297	1945.20850	13.05976	545.09271	1812.39929	338.45184	988.31244	1696.91870	286.24811	526.65839	1907.44226	107.61097	139.44827	1847.12329	520.68268	217.10205	1656.50708				
438	4.370	-54.25735	1651.00427	1829.76501	135.51572	1729.33887	1881.73828							302.16739	1528.23950	1921.03149				87.43812	1366.26245	1820.87170				322.10889	1244.92029	2032.93359	38.54288	1208.37244	1503.69421	237.69792	1042.25598	2150.48755	-7.29258	990.65936	1731.04077	154.04573	970.87732	1951.97046	-40.59674	950.89105	1531.07336	333.57791	988.11060	1704.95374	274.37421	526.04871	1922.64099	7.38741	546.06250	1815.75476	514.11310	223.45309	1666.54956	107.23496	139.40634	1847.68396	
439	4.380	-60.61775	1651.19080	1830.45300	128.49490	1730.23938	1884.01941							294.67517	1528.58533	1926.02319	-13.48439	991.33807	1735.67834	80.56155	1366.65210	1824.19067				312.75583	1244.97034	2038.30933	35.59208	1207.70630	1507.44104	227.79695	1042.76526	2155.14111	-45.41153	951.67633	1537.73743	143.95401	972.98755	1959.31909	1.64441	547.53101	1818.22546	328.95221	987.68188	1713.74170	262.40012	526.11945	1938.88391				506.86200	230.06425	1677.10437	107.12525	139.42030	1847.84705	
440	4.390	-66.90504	1651.78027	1831.13977	121.56033	1730.72144	1886.30457							286.74738	1529.70374	1932.42542	-19.30906	992.12640	1740.03210	73.58146	1367.31750	1827.25781				303.80078	1245.24683	2043.26599	32.85537	1207.09167	1511.45508	217.69948	1041.94775	2158.72632	-49.85344	951.08960	1540.49756	134.32663	974.80450	1965.35608	-4.50886	548.41925	1819.70386	324.39548	987.73102	1720.01794	249.88559	525.70850	1955.52173				499.08365	237.41324	1691.03137	107.00502	139.41545	1848.02612	
